<?xml version="1.0"?>
<svg version="1.1" xmlns="http://www.w3.org/2000/svg" width="235" height="91" style=""><path fill="#404a52" d="M15.9228515625,52.970703125l0-2.314453125q0-2.40234375,0.08056640625-4.76806640625t0.13916015625-4.76806640625q0-0.4541015625-0.029296875-1.0107421875q-0.0146484375-0.1611328125-0.0146484375-0.3076171875q0-0.3662109375,0.05859375-0.7177734375q0.0732421875-0.46875,0.35888671875-0.8056640625t0.94482421875-0.3369140625q0.5419921875,0,0.82763671875,0.1171875t0.40283203125,0.34423828125t0.1318359375,0.5712890625t0.0146484375,0.79833984375q0,2.431640625-0.05859375,4.8779296875q-0.0439453125,1.6259765625-0.0439453125,3.251953125q0,0.8203125,0.0146484375,1.640625q0.029296875,2.431640625,0.22705078125,4.86328125t0.66650390625,4.8046875q1.46484375-0.05859375,2.9296875-0.146484375t2.9296875-0.087890625q0.146484375,0,0.41748046875,0.029296875t0.5419921875,0.1025390625t0.46142578125,0.1904296875t0.1904296875,0.3369140625q0,0.146484375-0.1318359375,0.2490234375t-0.2490234375,0.1611328125l-0.029296875,0q-0.234375,0.1171875-0.93017578125,0.22705078125t-1.58203125,0.16845703125t-1.8603515625,0.1025390625t-1.8310546875,0.0732421875t-1.48681640625,0.0439453125t-0.7763671875,0.0146484375l-0.1318359375,0q-0.3515625,0-0.791015625-0.1171875q-0.52734375-0.146484375-0.6591796875-0.5712890625q-0.263671875-1.083984375-0.41748046875-2.24853515625t-0.234375-2.36572265625t-0.08056640625-2.40234375z M29.218798828125,55.0361328125q0-0.99609375,0.27099609375-1.9189453125t0.81298828125-1.64794921875t1.35498046875-1.1572265625t1.88232421875-0.43212890625q0.6591796875,0,1.45751953125,0.19775390625t1.50146484375,0.5859375t1.171875,0.98876953125t0.46875,1.376953125q0,0.3662109375-0.12451171875,0.556640625t-0.50537109375,0.1904296875l-0.1611328125-0.029296875q0.4248046875,1.142578125,0.732421875,2.34375t0.6005859375,2.40234375q0.1171875,0.234375,0.17578125,0.41748046875t0.05859375,0.35888671875q0,0.234375-0.1318359375,0.38818359375t-0.34423828125,0.22705078125t-0.439453125,0.1025390625t-0.40283203125,0.029296875q-0.6298828125,0-0.94482421875-0.2197265625t-0.4541015625-0.6005859375t-0.16845703125-0.85693359375t-0.1171875-0.95947265625q-0.17578125,0.5712890625-0.46142578125,1.11328125t-0.673828125,0.97412109375t-0.91552734375,0.6884765625t-1.1865234375,0.25634765625q-0.966796875,0-1.6259765625-0.556640625t-1.06201171875-1.36962890625t-0.5859375-1.73583984375t-0.18310546875-1.7138671875z M31.298876953125,54.8310546875q0,0.5419921875,0.0732421875,1.142578125t0.24169921875,1.1865234375t0.43212890625,1.10595703125t0.6591796875,0.91552734375q0.7177734375-0.7763671875,1.06201171875-1.8896484375t0.615234375-2.14599609375t0.615234375-1.7724609375t1.06201171875-0.73974609375q0.4541015625,0,0.76171875,0.1611328125q-0.146484375-0.3662109375-0.4833984375-0.71044921875t-0.75439453125-0.6298828125t-0.8642578125-0.46875t-0.84228515625-0.18310546875q-0.1171875,0-0.27099609375,0.03662109375t-0.24169921875,0.00732421875q-0.6005859375,0.17578125-0.98876953125,0.60791015625t-0.6298828125,1.01806640625t-0.34423828125,1.201171875t-0.1025390625,1.1572265625z M41.91416015625,51.2568359375q0-0.6005859375,0.3515625-1.03271484375t0.85693359375-0.703125t1.10595703125-0.40283203125t1.11328125-0.1318359375q0.3955078125,0,1.0546875,0.1171875t1.2890625,0.3515625t1.09130859375,0.615234375t0.46142578125,0.8935546875q0,0.234375-0.17578125,0.41748046875t-0.3662109375,0.18310546875q-0.3955078125,0-0.7177734375-0.25634765625t-0.66650390625-0.5419921875t-0.75439453125-0.5419921875t-0.9228515625-0.25634765625t-0.93017578125,0.32958984375t-0.41748046875,0.87158203125q0,0.8935546875,0.6298828125,1.75048828125t1.38427734375,1.8017578125t1.38427734375,1.98486328125t0.6298828125,2.2998046875q0,0.5419921875-0.22705078125,0.91552734375t-0.6005859375,0.60791015625t-0.84228515625,0.35888671875t-0.908203125,0.12451171875q-0.4833984375,0-1.1279296875-0.22705078125t-1.2158203125-0.6005859375t-0.95947265625-0.87158203125t-0.38818359375-1.0400390625q0-0.263671875,0.37353515625-0.3369140625t0.54931640625-0.0732421875q0.087890625,0,0.27099609375,0.05859375t0.35888671875,0.1318359375t0.31494140625,0.1611328125t0.10986328125,0.1904296875q0.146484375,0.17578125,0.44677734375,0.52001953125t0.6005859375,0.556640625t0.52734375,0.15380859375t0.22705078125-0.6591796875q0-1.142578125-0.615234375-2.10205078125t-1.34033203125-1.875t-1.34033203125-1.81640625t-0.615234375-1.92626953125z M52.236474609375,55.63671875q0-1.025390625,0.22705078125-2.4169921875t0.76904296875-2.63671875t1.42822265625-2.11669921875t2.23388671875-0.87158203125q1.259765625,0,1.8896484375,0.72509765625t0.6298828125,1.95556640625q0,0.8056640625-0.30029296875,1.76513671875t-0.85693359375,1.81640625t-1.318359375,1.42822265625t-1.69921875,0.5712890625l-0.380859375-0.029296875q0,0.3955078125,0.1171875,1.06201171875t0.34423828125,1.32568359375t0.5859375,1.1572265625t0.87158203125,0.498046875q0.7470703125,0,1.435546875-0.6005859375t1.3037109375-1.3330078125t1.142578125-1.3330078125t0.966796875-0.6005859375q0.234375,0,0.4833984375,0.0732421875t0.2783203125,0.41015625q0,0.205078125-0.10986328125,0.3369140625t-0.19775390625,0.29296875q-0.4541015625,0.7763671875-0.98876953125,1.4794921875t-1.20849609375,1.2744140625t-1.47216796875,0.90087890625t-1.76513671875,0.32958984375q-1.259765625,0-2.0947265625-0.44677734375t-1.34765625-1.201171875t-0.73974609375-1.7431640625t-0.22705078125-2.07275390625z M54.858544921875,54.5234375l0.41015625,0.3662109375q0.29296875,0.263671875,0.5859375,0.1171875t0.52734375-0.53466796875t0.43212890625-0.95947265625t0.3515625-1.171875t0.22705078125-1.171875t0.0732421875-0.9521484375l0-0.498046875t-0.0439453125-0.52734375t-0.15380859375-0.41748046875t-0.34423828125-0.21240234375q-0.0732421875-0.0146484375-0.1318359375-0.0146484375q-0.498046875,0-0.849609375,0.6298828125q-0.380859375,0.703125-0.615234375,1.70654296875t-0.3369140625,2.05810546875t-0.1318359375,1.58203125z M64.477734375,50.9345703125q0-0.6005859375,0.21240234375-1.0107421875t0.90087890625-0.41015625q0.263671875,0,0.6591796875,0.08056640625t0.4541015625,0.40283203125q0.146484375,0.8642578125,0.1611328125,1.875t0.1025390625,1.904296875q0.3369140625-0.6591796875,0.8642578125-1.4208984375t1.201171875-1.40625t1.46484375-1.0693359375t1.611328125-0.4248046875q0.05859375,0,0.2197265625,0.0439453125t0.30029296875,0.12451171875t0.16845703125,0.18310546875t-0.1611328125,0.1904296875q-0.05859375,0.17578125-0.2490234375,0.21240234375t-0.3369140625,0.03662109375q-0.087890625,0-0.2783203125-0.0732421875q-1.083984375,0.5712890625-1.845703125,1.552734375t-1.2451171875,2.17529296875t-0.703125,2.51953125t-0.2197265625,2.58544921875q0,0.6298828125-0.28564453125,0.76171875t-0.91552734375,0.1318359375q-0.3369140625,0-0.71044921875-0.0732421875t-0.52001953125-0.46875q-0.263671875-0.8349609375-0.43212890625-1.9189453125t-0.25634765625-2.23388671875t-0.12451171875-2.26318359375t-0.03662109375-2.0068359375z M74.887939453125,55.8271484375q0-3.1787109375,0.28564453125-6.36474609375t1.19384765625-6.27685546875q0.263671875-0.9228515625,0.6884765625-1.82373046875t1.0400390625-1.60400390625t1.46484375-1.142578125t2.021484375-0.439453125l0.3076171875,0.029296875q1.259765625,0.17578125,1.8603515625,1.01806640625t0.6005859375,2.10205078125q0,0.3369140625-0.08056640625,0.84228515625t-0.25634765625,0.97412109375t-0.47607421875,0.79833984375t-0.75439453125,0.32958984375q-0.205078125-0.029296875-0.37353515625-0.0732421875t-0.31494140625-0.1904296875q0.234375-0.5126953125,0.41748046875-1.0693359375t0.18310546875-1.2744140625q0-0.263671875-0.0439453125-0.673828125t-0.16845703125-0.81298828125t-0.32958984375-0.703125t-0.5712890625-0.30029296875q-0.9228515625,0-1.552734375,1.03271484375t-1.0546875,2.63671875t-0.6298828125,3.544921875t-0.31494140625,3.75t-0.12451171875,3.2666015625t-0.0146484375,2.05810546875q0,0.703125-0.0146484375,1.552734375l0,0.1904296875q0.0146484375,0.7470703125,0.1025390625,1.4208984375q0.1171875,0.76171875,0.4541015625,1.318359375t1.0546875,0.64453125q0.2197265625,0.029296875,0.4248046875,0.029296875q0.849609375,0,1.5380859375-0.4833984375q0.849609375-0.6005859375,1.5087890625-1.56005859375t1.171875-2.109375t0.94482421875-2.17529296875t0.84228515625-1.69921875t0.849609375-0.673828125q0.146484375,0,0.439453125,0.05859375t0.29296875,0.2783203125q0,0.05859375-0.029296875,0.1611328125t-0.0732421875,0.1611328125q-0.3955078125,1.552734375-1.00341796875,3.22265625t-1.552734375,3.03955078125t-2.314453125,2.23388671875t-3.28857421875,0.8642578125q-1.376953125,0-2.23388671875-0.52001953125t-1.318359375-1.3916015625t-0.6298828125-1.97021484375t-0.16845703125-2.2265625z M90.49833984375,60.236328125q0-0.4248046875,0.03662109375-0.8935546875t0.06591796875-0.87890625l0.087890625-2.197265625q0.146484375-2.63671875,0.35888671875-5.185546875t0.35888671875-5.15625q0.087890625-1.435546875,0.1318359375-2.81982421875t0.1318359375-2.81982421875q-0.05859375-0.1171875-0.05859375-0.1611328125q0-0.205078125,0.15380859375-0.322265625t0.35888671875-0.19775390625t0.43212890625-0.10986328125t0.34423828125-0.029296875l0.3369140625,0q0.4541015625,0.05859375,0.6591796875,0.28564453125t0.263671875,0.5419921875t0.029296875,0.673828125t-0.029296875,0.66650390625q0,2.1240234375-0.1025390625,4.32861328125t-0.234375,4.423828125t-0.24169921875,4.4384765625t-0.10986328125,4.38720703125l0,1.025390625q0,0.6884765625-0.38818359375,0.908203125t-1.07666015625,0.2197265625q-0.6005859375,0-1.0546875-0.263671875t-0.4541015625-0.8642578125z M97.217138671875,55.63671875q0-1.025390625,0.22705078125-2.4169921875t0.76904296875-2.63671875t1.42822265625-2.11669921875t2.23388671875-0.87158203125q1.259765625,0,1.8896484375,0.72509765625t0.6298828125,1.95556640625q0,0.8056640625-0.30029296875,1.76513671875t-0.85693359375,1.81640625t-1.318359375,1.42822265625t-1.69921875,0.5712890625l-0.380859375-0.029296875q0,0.3955078125,0.1171875,1.06201171875t0.34423828125,1.32568359375t0.5859375,1.1572265625t0.87158203125,0.498046875q0.7470703125,0,1.435546875-0.6005859375t1.3037109375-1.3330078125t1.142578125-1.3330078125t0.966796875-0.6005859375q0.234375,0,0.4833984375,0.0732421875t0.2783203125,0.41015625q0,0.205078125-0.10986328125,0.3369140625t-0.19775390625,0.29296875q-0.4541015625,0.7763671875-0.98876953125,1.4794921875t-1.20849609375,1.2744140625t-1.47216796875,0.90087890625t-1.76513671875,0.32958984375q-1.259765625,0-2.0947265625-0.44677734375t-1.34765625-1.201171875t-0.73974609375-1.7431640625t-0.22705078125-2.07275390625z M99.839208984375,54.5234375l0.41015625,0.3662109375q0.29296875,0.263671875,0.5859375,0.1171875t0.52734375-0.53466796875t0.43212890625-0.95947265625t0.3515625-1.171875t0.22705078125-1.171875t0.0732421875-0.9521484375l0-0.498046875t-0.0439453125-0.52734375t-0.15380859375-0.41748046875t-0.34423828125-0.21240234375q-0.0732421875-0.0146484375-0.1318359375-0.0146484375q-0.498046875,0-0.849609375,0.6298828125q-0.380859375,0.703125-0.615234375,1.70654296875t-0.3369140625,2.05810546875t-0.1318359375,1.58203125z M109.4583984375,55.0361328125q0-0.99609375,0.27099609375-1.9189453125t0.81298828125-1.64794921875t1.35498046875-1.1572265625t1.88232421875-0.43212890625q0.6591796875,0,1.45751953125,0.19775390625t1.50146484375,0.5859375t1.171875,0.98876953125t0.46875,1.376953125q0,0.3662109375-0.12451171875,0.556640625t-0.50537109375,0.1904296875l-0.1611328125-0.029296875q0.4248046875,1.142578125,0.732421875,2.34375t0.6005859375,2.40234375q0.1171875,0.234375,0.17578125,0.41748046875t0.05859375,0.35888671875q0,0.234375-0.1318359375,0.38818359375t-0.34423828125,0.22705078125t-0.439453125,0.1025390625t-0.40283203125,0.029296875q-0.6298828125,0-0.94482421875-0.2197265625t-0.4541015625-0.6005859375t-0.16845703125-0.85693359375t-0.1171875-0.95947265625q-0.17578125,0.5712890625-0.46142578125,1.11328125t-0.673828125,0.97412109375t-0.91552734375,0.6884765625t-1.1865234375,0.25634765625q-0.966796875,0-1.6259765625-0.556640625t-1.06201171875-1.36962890625t-0.5859375-1.73583984375t-0.18310546875-1.7138671875z M111.5384765625,54.8310546875q0,0.5419921875,0.0732421875,1.142578125t0.24169921875,1.1865234375t0.43212890625,1.10595703125t0.6591796875,0.91552734375q0.7177734375-0.7763671875,1.06201171875-1.8896484375t0.615234375-2.14599609375t0.615234375-1.7724609375t1.06201171875-0.73974609375q0.4541015625,0,0.76171875,0.1611328125q-0.146484375-0.3662109375-0.4833984375-0.71044921875t-0.75439453125-0.6298828125t-0.8642578125-0.46875t-0.84228515625-0.18310546875q-0.1171875,0-0.27099609375,0.03662109375t-0.24169921875,0.00732421875q-0.6005859375,0.17578125-0.98876953125,0.60791015625t-0.6298828125,1.01806640625t-0.34423828125,1.201171875t-0.1025390625,1.1572265625z M122.16840820313,55.109375l0-0.4248046875q0-0.52734375,0.029296875-0.99609375q0.029296875-0.6591796875,0.029296875-1.083984375q0-0.234375,0.029296875-0.53466796875t0.146484375-0.47607421875q0.146484375-0.146484375,0.34423828125-0.30029296875t0.43212890625-0.15380859375q0.7470703125,0,1.171875,0.16845703125t0.4541015625,0.69580078125l0.05859375,0.4541015625q0.263671875-0.6298828125,0.703125-1.56005859375t1.01806640625-1.7724609375t1.3037109375-1.435546875t1.53076171875-0.59326171875q0.7470703125,0,1.23046875,0.703125t0.76904296875,1.79443359375t0.40283203125,2.431640625t0.1611328125,2.62939453125t0.05859375,2.35107421875t0.1025390625,1.60400390625q0.05859375,0.4541015625,0.19775390625,0.95947265625t0.13916015625,0.93017578125q0,0.1171875-0.16845703125,0.22705078125t-0.35888671875,0.18310546875t-0.38818359375,0.1171875t-0.28564453125,0.0439453125q-0.5712890625,0-0.81298828125-0.85693359375t-0.30029296875-2.14599609375t-0.05859375-2.79052734375t-0.1025390625-2.79052734375t-0.41748046875-2.14599609375t-1.00341796875-0.88623046875q-0.6298828125,0-1.3037109375,0.81298828125t-1.1572265625,2.16064453125q-0.46875,1.34765625-0.64453125,3.0615234375q-0.05859375,0.5419921875-0.05859375,1.083984375q0,1.1865234375,0.2490234375,2.373046875q0.029296875,0.205078125-0.16845703125,0.3076171875t-0.49072265625,0.1611328125t-0.59326171875,0.0732421875t-0.46142578125,0.0146484375q-0.5712890625,0-0.91552734375-0.40283203125t-0.53466796875-1.03271484375t-0.25634765625-1.41357421875t-0.08056640625-1.54541015625z"/><path fill="#704a91" d="M146.12749023438,44.32421875q0.13671875-0.642578125,0.6015625-1.298828125t0.888671875-1.244140625q0.24609375-0.369140625,0.5400390625-0.84765625t0.6015625-0.8955078125t0.6904296875-0.697265625t0.79296875-0.2802734375l0.19140625,0q0.177734375,0,0.3896484375,0.0546875t0.3896484375,0.1708984375t0.177734375,0.3349609375q0,0.2734375-0.205078125,0.615234375t-0.341796875,0.587890625q-0.724609375,1.3125-1.162109375,2.1259765625t-0.7724609375,1.2783203125t-0.642578125,0.62890625t-0.8134765625,0.1640625q-0.24609375,0-0.57421875-0.0546875t-0.546875-0.2734375q-0.19140625-0.13671875-0.205078125-0.369140625z M149.83256835938,44.32421875q0-0.02734375,0.0546875-0.19140625q0.369140625-0.724609375,0.7998046875-1.3603515625t0.8818359375-1.2783203125q0.24609375-0.369140625,0.5810546875-0.8271484375t0.7451171875-0.8818359375t0.8544921875-0.697265625t0.9228515625-0.2734375q0.369140625,0,0.7587890625,0.13671875t0.3896484375,0.451171875q0,0.1640625-0.095703125,0.21875t-0.150390625,0.1640625q0.02734375-0.0546875,0.109375-0.13671875q-0.861328125,1.17578125-1.77734375,2.310546875t-1.44921875,2.529296875q-0.13671875,0.369140625-0.5810546875,0.4375t-0.7041015625,0.068359375q0.02734375,0-0.1845703125,0t-0.4580078125-0.0546875t-0.4716796875-0.1982421875t-0.2255859375-0.4169921875z M157.78508789063,40.044921875q0-0.19140625,0.2666015625-0.2939453125t0.3486328125-0.1025390625l0.505859375-0.08203125q0.505859375-0.08203125,1.025390625-0.1435546875t1.01171875-0.1162109375q1.736328125-0.21875,3.47265625-0.4306640625t3.5-0.2119140625q0.13671875,0,0.3759765625,0.013671875t0.478515625,0.0751953125t0.41015625,0.1708984375t0.1708984375,0.30078125q0,0.13671875-0.1298828125,0.2392578125t-0.3076171875,0.1572265625t-0.3623046875,0.068359375t-0.2939453125,0.013671875l-0.2392578125,0t-0.2392578125-0.0546875q-0.724609375,0-1.4287109375,0.068359375t-1.4287109375,0.123046875q0.19140625,0.21875,0.205078125,0.615234375t0.02734375,0.68359375q0,4.83984375,0.068359375,9.625t0.123046875,9.666015625l0,0.02734375q-0.451171875,0.396484375-0.7724609375,0.505859375t-0.6494140625,0.109375q-0.314453125,0-0.6357421875-0.1162109375t-0.7724609375-0.4990234375l0-0.02734375l0.109375-10.732421875q0-1.06640625-0.02734375-2.3515625t-0.02734375-2.6044921875t0.041015625-2.5498046875t0.21875-2.146484375q-0.806640625,0.08203125-1.708984375,0.24609375q-0.779296875,0.13671875-1.490234375,0.13671875l-0.24609375,0q-0.0546875,0-0.3212890625,0.013671875t-0.546875-0.013671875t-0.505859375-0.109375t-0.2255859375-0.2734375z M171.02862304688,54.66015625q0-0.779296875,0.1982421875-1.6064453125t0.62890625-1.490234375t1.0869140625-1.080078125t1.5859375-0.4169921875q0.697265625,0,1.4697265625,0.2392578125t1.4150390625,0.68359375t1.0458984375,1.0869140625t0.4033203125,1.435546875q0,0.95703125-0.3486328125,1.818359375t-0.9775390625,1.5380859375t-1.4697265625,1.06640625t-1.8251953125,0.3896484375q-0.806640625,0-1.408203125-0.2939453125t-1.0048828125-0.7861328125t-0.6015625-1.162109375t-0.1982421875-1.421875z M173.03838867188,54.6328125q0,0.24609375,0.0751953125,0.724609375t0.2255859375,0.9365234375t0.3896484375,0.79296875t0.5810546875,0.3076171875q0.724609375-0.08203125,1.1962890625-0.4716796875t0.765625-0.9501953125t0.41015625-1.216796875t0.1162109375-1.244140625q0-0.751953125-0.2939453125-1.2578125t-0.9638671875-0.8203125q0,0.02734375,0.02734375,0.02734375t0.02734375-0.02734375l-0.341796875-0.08203125q-0.13671875-0.0546875-0.3349609375-0.123046875t-0.3896484375-0.30078125q-0.533203125,0.19140625-0.8271484375,0.4921875t-0.4443359375,0.7314453125t-0.1845703125,1.0322265625t-0.0341796875,1.44921875z M181.38739257813,59.25390625q0-0.396484375,0.0341796875-0.833984375t0.0615234375-0.8203125l0.08203125-2.05078125q0.13671875-2.4609375,0.3349609375-4.83984375t0.3349609375-4.8125q0.08203125-1.33984375,0.123046875-2.6318359375t0.123046875-2.6318359375q-0.0546875-0.109375-0.0546875-0.150390625q0-0.19140625,0.1435546875-0.30078125t0.3349609375-0.1845703125t0.4033203125-0.1025390625t0.3212890625-0.02734375l0.314453125,0q0.423828125,0.0546875,0.615234375,0.2666015625t0.24609375,0.505859375t0.02734375,0.62890625t-0.02734375,0.6220703125q0,1.982421875-0.095703125,4.0400390625t-0.21875,4.12890625t-0.2255859375,4.142578125t-0.1025390625,4.0947265625l0,0.95703125q0,0.642578125-0.3623046875,0.84765625t-1.0048828125,0.205078125q-0.560546875,0-0.984375-0.24609375t-0.423828125-0.806640625z M187.65827148438,54.072265625q0-1.2578125,0.2939453125-2.4677734375t0.4990234375-2.4130859375q0.0546875-0.314453125,0.4306640625-0.3896484375t0.6357421875-0.0751953125q0.451171875,0,0.724609375,0.13671875q0.109375,0.0546875,0.205078125,0.123046875t0.095703125,0.177734375q0,1.17578125-0.2802734375,2.296875t-0.2802734375,2.37890625q0,0.423828125,0.0615234375,0.7998046875t0.1162109375,0.7451171875l0.08203125,0.396484375q0,0.109375,0.013671875,0.19140625t0.041015625,0.19140625q0,0.24609375-0.3486328125,0.3349609375t-0.6083984375,0.0888671875q-0.396484375,0-0.7314453125-0.1572265625t-0.5263671875-0.5400390625l-0.19140625-0.396484375q-0.1640625-0.314453125-0.1640625-0.7041015625t-0.068359375-0.7177734375z M188.53327148438,45.841796875l0-0.259765625q0-0.642578125,0.3212890625-1.1484375t0.9638671875-0.505859375q0.08203125,0,0.1572265625,0.013671875t0.1572265625,0.013671875q0.1640625,0.02734375,0.4306640625,0.1298828125t0.2666015625,0.3212890625l0,0.02734375q-0.0546875,0.109375-0.068359375,0.2255859375t-0.068359375,0.1982421875l0.02734375-0.02734375q-0.1640625,0.423828125-0.2666015625,0.68359375t-0.2255859375,0.4169921875t-0.3076171875,0.2255859375t-0.5263671875,0.068359375q-0.0546875,0-0.19140625-0.013671875t-0.2939453125-0.0546875t-0.2666015625-0.109375t-0.109375-0.205078125z M193.62836914063,54.126953125q0-0.984375,0.2529296875-1.9755859375t0.7861328125-1.77734375t1.3603515625-1.2783203125t1.9482421875-0.4921875q0.478515625,0,1.052734375,0.1162109375t1.0595703125,0.369140625t0.8203125,0.65625t0.3349609375,0.9912109375q0,0.369140625-0.19140625,0.4921875t-0.505859375,0.123046875l-0.095703125-0.13671875t-0.2666015625-0.3486328125t-0.3623046875-0.451171875t-0.369140625-0.4033203125q-0.560546875-0.560546875-1.052734375-0.6015625l-0.109375,0q-0.41015625,0-0.765625,0.24609375q-0.396484375,0.30078125-0.7041015625,0.84765625t-0.5126953125,1.162109375t-0.3212890625,1.244140625t-0.1162109375,1.0390625q0,0.560546875,0.1298828125,1.2783203125t0.4375,1.3603515625t0.779296875,1.080078125t1.2099609375,0.4375q0.669921875,0,1.216796875-0.328125t1.0458984375-0.7314453125t0.9775390625-0.724609375t0.984375-0.3212890625q0.21875,0,0.4443359375,0.0546875t0.2255859375,0.287109375l0,0.08203125q-0.24609375,0.642578125-0.833984375,1.134765625t-1.3193359375,0.8544921875t-1.517578125,0.5400390625t-1.4013671875,0.177734375q-1.1484375,0-2.0166015625-0.3759765625t-1.4423828125-1.0322265625t-0.8681640625-1.5791015625t-0.2939453125-2.0166015625z M205.55940429688,55.890625l0-1.28515625q0-0.697265625,0.0341796875-1.9755859375t0.0888671875-2.802734375t0.150390625-3.1787109375t0.21875-3.1240234375t0.2939453125-2.6318359375t0.3896484375-1.72265625q0.13671875-0.314453125,0.451171875-0.396484375t0.615234375-0.08203125q0.478515625,0,0.8408203125,0.2119140625t0.3623046875,0.7724609375l-0.24609375,0.2734375q-0.478515625,3.158203125-0.615234375,6.34375t-0.19140625,6.37109375q0.341796875-0.533203125,0.7724609375-1.0458984375t0.95703125-0.9091796875t1.134765625-0.6357421875t1.3330078125-0.2392578125q0.9296875,0,1.5380859375,0.560546875t1.0048828125,1.4560546875t0.587890625,2.0029296875t0.2939453125,2.21484375t0.1435546875,2.0986328125t0.123046875,1.6474609375q-0.259765625,0.35546875-0.765625,0.35546875l-0.041015625,0q-0.21875,0-0.478515625-0.0546875t-0.341796875-0.2734375l0.02734375,0.02734375q-0.19140625-0.423828125-0.259765625-1.2236328125t-0.109375-1.763671875t-0.1435546875-1.9755859375t-0.3076171875-1.83203125t-0.6015625-1.353515625t-1.06640625-0.560546875l-0.08203125,0q-0.806640625,0-1.353515625,0.4921875q-0.57421875,0.51953125-0.9296875,1.3671875t-0.546875,1.88671875t-0.2939453125,2.0029296875t-0.1572265625,1.75t-0.13671875,1.1552734375q-0.08203125,0.314453125-0.4853515625,0.4169921875t-0.6904296875,0.1025390625q-0.669921875,0-1.09375-0.3828125q-0.314453125-0.751953125-0.369140625-1.873046875t-0.0546875-2.1875z M218.63887695313,44.32421875q0.13671875-0.642578125,0.6015625-1.298828125t0.888671875-1.244140625q0.24609375-0.369140625,0.5400390625-0.84765625t0.6015625-0.8955078125t0.6904296875-0.697265625t0.79296875-0.2802734375l0.19140625,0q0.177734375,0,0.3896484375,0.0546875t0.3896484375,0.1708984375t0.177734375,0.3349609375q0,0.2734375-0.205078125,0.615234375t-0.341796875,0.587890625q-0.724609375,1.3125-1.162109375,2.1259765625t-0.7724609375,1.2783203125t-0.642578125,0.62890625t-0.8134765625,0.1640625q-0.24609375,0-0.57421875-0.0546875t-0.546875-0.2734375q-0.19140625-0.13671875-0.205078125-0.369140625z M222.34395507813,44.32421875q0-0.02734375,0.0546875-0.19140625q0.369140625-0.724609375,0.7998046875-1.3603515625t0.8818359375-1.2783203125q0.24609375-0.369140625,0.5810546875-0.8271484375t0.7451171875-0.8818359375t0.8544921875-0.697265625t0.9228515625-0.2734375q0.369140625,0,0.7587890625,0.13671875t0.3896484375,0.451171875q0,0.1640625-0.095703125,0.21875t-0.150390625,0.1640625q0.02734375-0.0546875,0.109375-0.13671875q-0.861328125,1.17578125-1.77734375,2.310546875t-1.44921875,2.529296875q-0.13671875,0.369140625-0.5810546875,0.4375t-0.7041015625,0.068359375q0.02734375,0-0.1845703125,0t-0.4580078125-0.0546875t-0.4716796875-0.1982421875t-0.2255859375-0.4169921875z"/></svg>
